<svg width="1280" height="400" viewBox="0 0 1280 400" xmlns="http://www.w3.org/2000/svg">
  <defs>
    <linearGradient id="bg" x1="0" y1="0" x2="0" y2="1">
      <stop offset="0%" stop-color="#15101F"/>
      <stop offset="100%" stop-color="#0A0712"/>
    </linearGradient>
    <radialGradient id="glow" cx="20%" cy="28%" r="58%">
      <stop offset="0%" stop-color="#7C5CFF" stop-opacity="0.30"/>
      <stop offset="55%" stop-color="#7C5CFF" stop-opacity="0.06"/>
      <stop offset="100%" stop-color="#7C5CFF" stop-opacity="0"/>
    </radialGradient>
    <radialGradient id="glow2" cx="92%" cy="82%" r="46%">
      <stop offset="0%" stop-color="#2E6BFF" stop-opacity="0.13"/>
      <stop offset="100%" stop-color="#2E6BFF" stop-opacity="0"/>
    </radialGradient>
    <pattern id="dots" width="26" height="26" patternUnits="userSpaceOnUse">
      <circle cx="1.4" cy="1.4" r="1.4" fill="#FFFFFF" opacity="0.045"/>
    </pattern>
    <linearGradient id="tile" x1="0" y1="0" x2="0" y2="1">
      <stop offset="0%" stop-color="#1A1330"/>
      <stop offset="100%" stop-color="#0C0818"/>
    </linearGradient>
    <clipPath id="tileclip"><rect x="90" y="115" width="170" height="170" rx="40"/></clipPath>
  </defs>

  <rect width="1280" height="400" fill="url(#bg)"/>
  <rect width="1280" height="400" fill="url(#dots)"/>
  <rect width="1280" height="400" fill="url(#glow)"/>
  <rect width="1280" height="400" fill="url(#glow2)"/>

  <rect x="90" y="115" width="170" height="170" rx="40" fill="url(#tile)" stroke="#2C2150" stroke-width="1.5"/>
  <g clip-path="url(#tileclip)">
    <circle cx="175" cy="180" r="100" fill="#7C5CFF" opacity="0.2"/>
  </g>
  <circle cx="175" cy="196" r="52" fill="none" stroke="#F4F2FA" stroke-width="8"/>
  <rect x="143" y="182" width="64" height="18" rx="9" fill="#7C5CFF"/>
  <path d="M157 222 q18 11 36 -2" fill="none" stroke="#F4F2FA" stroke-width="7" stroke-linecap="round"/>

  <text x="312" y="180" font-family="'Segoe UI', system-ui, -apple-system, Helvetica, Arial, sans-serif" font-size="74" font-weight="700" fill="#FFFFFF" letter-spacing="-1">AI Job Hunter</text>
  <rect x="314" y="198" width="118" height="5" rx="2.5" fill="#7C5CFF"/>
  <text x="314" y="240" font-family="'Segoe UI', system-ui, -apple-system, Helvetica, Arial, sans-serif" font-size="27" fill="#ADA8C6">Your local-first, AI-native job-hunting assistant.</text>
  <text x="314" y="288" font-family="'SF Mono','Consolas','DejaVu Sans Mono',monospace" font-size="18" fill="#8E83CC">scrape 18 boards · tailor résumés · apply on autopilot · 100% offline</text>
</svg>
